<svg xmlns="http://www.w3.org/2000/svg" width="109" height="57" version="1.0" viewBox="0 0 81.75 42.75"><defs><clipPath id="a"><path d="M46.27 21.25H79v10.441H46.27Zm0 0"/></clipPath><clipPath id="b"><path d="M46.324 30.113c0-.86.742-1.527 1.594-1.433l25.348 2.87c3.25.372 6-2.386 5.652-5.66-.363-3.406-3.875-5.511-7.023-4.206L48.3 31.449c-.942.39-1.977-.308-1.977-1.336m0 0"/></clipPath><linearGradient id="c" x1="805.977" x2="763.259" y1="187.482" y2="319.317" gradientTransform="matrix(.14405 0 0 .14499 46.323 21.25)" gradientUnits="userSpaceOnUse"><stop offset="0" stop-color="#CA517E"/><stop offset=".5" stop-color="#C137B6"/><stop offset="1" stop-color="#B71DEE"/></linearGradient></defs><g clip-path="url(#a)"><g clip-path="url(#b)"><path fill="url(#c)" d="M46.324 21.25v10.441h32.754V21.25Zm0 0"/></g></g><path fill="#fff" d="M15.428 12.923h3.484v11.72q-.002 1.61-.719 2.858a4.87 4.87 0 0 1-2.015 1.907c-.868.445-1.844.672-2.938.672q-2.688 0-4.187-1.36-1.5-1.372-1.5-3.875h3.5q0 1.253.515 1.844.529.596 1.672.594.996.002 1.594-.688.592-.687.594-1.953ZM29.208 28.564q-1.252 1.517-3.438 1.516c-1.355 0-2.386-.383-3.093-1.157q-1.066-1.171-1.094-3.422v-8.234h3.36v8.125q-.001 1.97 1.796 1.969 1.7 0 2.344-1.188v-8.906h3.375v12.578h-3.156ZM38.542 29.845h-3.375v-17.86h3.375ZM44.853 29.845h-3.375V17.267h3.375Zm-3.578-15.844c0-.5.164-.91.5-1.234.344-.32.805-.484 1.39-.484.571 0 1.024.164 1.36.484q.516.485.516 1.234 0 .786-.516 1.266c-.344.324-.805.484-1.375.484q-.843.001-1.36-.484-.515-.48-.515-1.266M54.899 29.845q-.235-.45-.329-1.125-1.236 1.36-3.187 1.36-1.844.002-3.063-1.063c-.804-.719-1.203-1.617-1.203-2.703q0-1.997 1.469-3.063 1.483-1.077 4.297-1.093h1.547v-.719q-.001-.874-.453-1.39-.457-.53-1.407-.532-.862.001-1.343.406-.47.411-.47 1.125h-3.374q0-1.09.672-2.015.685-.937 1.922-1.469 1.23-.53 2.765-.531 2.328 0 3.688 1.172t1.36 3.28v5.454q.011 1.8.5 2.703v.203Zm-2.782-2.344q.749 0 1.375-.328.621-.327.938-.89v-2.157h-1.266q-2.519.002-2.687 1.75v.188q-.001.627.437 1.031c.29.274.692.406 1.203.406M63.472 17.267l.094 1.453q1.358-1.687 3.625-1.687 1.997 0 2.969 1.172.983 1.171 1 3.515v8.125H67.8v-8.047q0-1.06-.468-1.547-.457-.482-1.547-.484-1.409 0-2.125 1.203v8.875H60.3V17.267Zm0 0"/></svg>
