<svg xmlns="http://www.w3.org/2000/svg" width="32" height="33" fill="none"><path fill="#D8D8D8" d="m20.352 21.554-.738.777s-1.755 1.848-6.545-3.195c-4.79-5.042-3.035-6.89-3.035-6.89l.465-.49c1.145-1.205 1.253-3.14.254-4.554L8.71 4.312c-1.236-1.75-3.626-1.98-5.044-.489L1.121 6.502c-.702.74-1.173 1.7-1.116 2.763.146 2.722 1.309 8.58 7.8 15.413 6.883 7.247 13.342 7.535 15.983 7.275.836-.083 1.562-.533 2.148-1.15l2.302-2.424c1.554-1.636 1.116-4.441-.872-5.586l-3.097-1.782c-1.306-.752-2.897-.531-3.917.543M16.63 1.02A1.217 1.217 0 0 1 18.028.017c.041.008.173.032.242.048q.21.044.572.148c.481.14 1.153.371 1.96.74 1.615.741 3.764 2.036 5.994 4.266s3.525 4.38 4.265 5.994c.37.806.6 1.479.74 1.96a9 9 0 0 1 .183.737l.01.05c.107.663-.338 1.316-1.001 1.423a1.216 1.216 0 0 1-1.393-1l-.023-.11a7 7 0 0 0-.11-.42c-.11-.377-.3-.937-.616-1.627-.632-1.378-1.768-3.281-3.775-5.288-2.006-2.006-3.91-3.142-5.287-3.774-.69-.316-1.25-.507-1.627-.617a9 9 0 0 0-.514-.129 1.23 1.23 0 0 1-1.016-1.396"/><path fill="#D8D8D8" fill-rule="evenodd" d="M16.996 6.612a1.216 1.216 0 0 1 1.503-.835l-.334 1.168.334-1.168h.003l.002.001.005.002.013.003.032.01.091.031q.11.038.287.113c.237.102.56.258.956.492.793.47 1.876 1.25 3.148 2.522s2.052 2.355 2.522 3.149c.235.396.39.719.492.955a5 5 0 0 1 .144.378l.01.032.004.013.001.005.001.003s0 .002-1.168.336l1.169-.334a1.216 1.216 0 0 1-2.333.684l-.006-.017a2 2 0 0 0-.057-.142 6 6 0 0 0-.35-.675c-.36-.61-1.013-1.533-2.148-2.668-1.134-1.134-2.057-1.787-2.668-2.148a6 6 0 0 0-.674-.35 3 3 0 0 0-.143-.056l-.017-.006a1.216 1.216 0 0 1-.819-1.498" clip-rule="evenodd"/></svg>