<svg xmlns="http://www.w3.org/2000/svg" xmlns:xlink="http://www.w3.org/1999/xlink" width="1080" zoomAndPan="magnify" viewBox="0 0 810 809.999993" height="1080" preserveAspectRatio="xMidYMid meet" version="1.0"><defs><g/></defs><rect x="-81" width="972" fill="#ffffff" y="-80.999999" height="971.999992" fill-opacity="1"/><rect x="-81" width="972" fill="#000000" y="-80.999999" height="971.999992" fill-opacity="1"/><g fill="#ffffff" fill-opacity="1"><g transform="translate(46.62771, 133.787683)"><g><path d="M 37.796875 -88.203125 L 37.796875 -99 L 48.59375 -99 L 48.59375 -88.203125 Z M 12.59375 0 L 12.59375 -10.796875 L 23.40625 -10.796875 L 23.40625 0 Z M 25.203125 12.59375 L 25.203125 1.796875 L 36 1.796875 L 36 12.59375 Z M 12.59375 -12.59375 L 12.59375 -23.40625 L 23.40625 -23.40625 L 23.40625 -12.59375 Z M 25.203125 0 L 25.203125 -10.796875 L 36 -10.796875 L 36 0 Z M 37.796875 12.59375 L 37.796875 1.796875 L 48.59375 1.796875 L 48.59375 12.59375 Z M 0 -37.796875 L 0 -48.59375 L 10.796875 -48.59375 L 10.796875 -37.796875 Z M 12.59375 -25.203125 L 12.59375 -36 L 23.40625 -36 L 23.40625 -25.203125 Z M 25.203125 -12.59375 L 25.203125 -23.40625 L 36 -23.40625 L 36 -12.59375 Z M 12.59375 -37.796875 L 12.59375 -48.59375 L 23.40625 -48.59375 L 23.40625 -37.796875 Z M 25.203125 -25.203125 L 25.203125 -36 L 36 -36 L 36 -25.203125 Z M 12.59375 -50.40625 L 12.59375 -61.203125 L 23.40625 -61.203125 L 23.40625 -50.40625 Z M 12.59375 -63 L 12.59375 -73.796875 L 23.40625 -73.796875 L 23.40625 -63 Z M 25.203125 -50.40625 L 25.203125 -61.203125 L 36 -61.203125 L 36 -50.40625 Z M 12.59375 -75.59375 L 12.59375 -86.40625 L 23.40625 -86.40625 L 23.40625 -75.59375 Z M 25.203125 -63 L 25.203125 -73.796875 L 36 -73.796875 L 36 -63 Z M 25.203125 -75.59375 L 25.203125 -86.40625 L 36 -86.40625 L 36 -75.59375 Z M 25.203125 -88.203125 L 25.203125 -99 L 36 -99 L 36 -88.203125 Z M 25.203125 -88.203125 "/></g></g></g><g fill="#ffffff" fill-opacity="1"><g transform="translate(107.827711, 133.787683)"><g/></g></g><g fill="#ffffff" fill-opacity="1"><g transform="translate(151.027714, 133.787683)"><g><path d="M 25.203125 -75.59375 L 25.203125 -86.40625 L 36 -86.40625 L 36 -75.59375 Z M 0 12.59375 L 0 1.796875 L 10.796875 1.796875 L 10.796875 12.59375 Z M 12.59375 12.59375 L 12.59375 1.796875 L 23.40625 1.796875 L 23.40625 12.59375 Z M 12.59375 0 L 12.59375 -10.796875 L 23.40625 -10.796875 L 23.40625 0 Z M 12.59375 -12.59375 L 12.59375 -23.40625 L 23.40625 -23.40625 L 23.40625 -12.59375 Z M 25.203125 0 L 25.203125 -10.796875 L 36 -10.796875 L 36 0 Z M 12.59375 -25.203125 L 12.59375 -36 L 23.40625 -36 L 23.40625 -25.203125 Z M 25.203125 -12.59375 L 25.203125 -23.40625 L 36 -23.40625 L 36 -12.59375 Z M 25.203125 -25.203125 L 25.203125 -36 L 36 -36 L 36 -25.203125 Z M 12.59375 -50.40625 L 12.59375 -61.203125 L 23.40625 -61.203125 L 23.40625 -50.40625 Z M 25.203125 -37.796875 L 25.203125 -48.59375 L 36 -48.59375 L 36 -37.796875 Z M 12.59375 -63 L 12.59375 -73.796875 L 23.40625 -73.796875 L 23.40625 -63 Z M 25.203125 -50.40625 L 25.203125 -61.203125 L 36 -61.203125 L 36 -50.40625 Z M 37.796875 -37.796875 L 37.796875 -48.59375 L 48.59375 -48.59375 L 48.59375 -37.796875 Z M 0 -88.203125 L 0 -99 L 10.796875 -99 L 10.796875 -88.203125 Z M 12.59375 -75.59375 L 12.59375 -86.40625 L 23.40625 -86.40625 L 23.40625 -75.59375 Z M 25.203125 -63 L 25.203125 -73.796875 L 36 -73.796875 L 36 -63 Z M 12.59375 -88.203125 L 12.59375 -99 L 23.40625 -99 L 23.40625 -88.203125 Z M 12.59375 -88.203125 "/></g></g></g><g fill="#ffffff" fill-opacity="1"><g transform="translate(330.702672, 133.787683)"><g><path d="M 37.796875 -88.203125 L 37.796875 -99 L 48.59375 -99 L 48.59375 -88.203125 Z M 12.59375 0 L 12.59375 -10.796875 L 23.40625 -10.796875 L 23.40625 0 Z M 25.203125 12.59375 L 25.203125 1.796875 L 36 1.796875 L 36 12.59375 Z M 12.59375 -12.59375 L 12.59375 -23.40625 L 23.40625 -23.40625 L 23.40625 -12.59375 Z M 25.203125 0 L 25.203125 -10.796875 L 36 -10.796875 L 36 0 Z M 37.796875 12.59375 L 37.796875 1.796875 L 48.59375 1.796875 L 48.59375 12.59375 Z M 0 -37.796875 L 0 -48.59375 L 10.796875 -48.59375 L 10.796875 -37.796875 Z M 12.59375 -25.203125 L 12.59375 -36 L 23.40625 -36 L 23.40625 -25.203125 Z M 25.203125 -12.59375 L 25.203125 -23.40625 L 36 -23.40625 L 36 -12.59375 Z M 12.59375 -37.796875 L 12.59375 -48.59375 L 23.40625 -48.59375 L 23.40625 -37.796875 Z M 25.203125 -25.203125 L 25.203125 -36 L 36 -36 L 36 -25.203125 Z M 12.59375 -50.40625 L 12.59375 -61.203125 L 23.40625 -61.203125 L 23.40625 -50.40625 Z M 12.59375 -63 L 12.59375 -73.796875 L 23.40625 -73.796875 L 23.40625 -63 Z M 25.203125 -50.40625 L 25.203125 -61.203125 L 36 -61.203125 L 36 -50.40625 Z M 12.59375 -75.59375 L 12.59375 -86.40625 L 23.40625 -86.40625 L 23.40625 -75.59375 Z M 25.203125 -63 L 25.203125 -73.796875 L 36 -73.796875 L 36 -63 Z M 25.203125 -75.59375 L 25.203125 -86.40625 L 36 -86.40625 L 36 -75.59375 Z M 25.203125 -88.203125 L 25.203125 -99 L 36 -99 L 36 -88.203125 Z M 25.203125 -88.203125 "/></g></g></g><g fill="#ffffff" fill-opacity="1"><g transform="translate(391.902674, 133.787683)"><g/></g></g><g fill="#ffffff" fill-opacity="1"><g transform="translate(435.102676, 133.787683)"><g><path d="M 25.203125 -75.59375 L 25.203125 -86.40625 L 36 -86.40625 L 36 -75.59375 Z M 0 12.59375 L 0 1.796875 L 10.796875 1.796875 L 10.796875 12.59375 Z M 12.59375 12.59375 L 12.59375 1.796875 L 23.40625 1.796875 L 23.40625 12.59375 Z M 12.59375 0 L 12.59375 -10.796875 L 23.40625 -10.796875 L 23.40625 0 Z M 12.59375 -12.59375 L 12.59375 -23.40625 L 23.40625 -23.40625 L 23.40625 -12.59375 Z M 25.203125 0 L 25.203125 -10.796875 L 36 -10.796875 L 36 0 Z M 12.59375 -25.203125 L 12.59375 -36 L 23.40625 -36 L 23.40625 -25.203125 Z M 25.203125 -12.59375 L 25.203125 -23.40625 L 36 -23.40625 L 36 -12.59375 Z M 25.203125 -25.203125 L 25.203125 -36 L 36 -36 L 36 -25.203125 Z M 12.59375 -50.40625 L 12.59375 -61.203125 L 23.40625 -61.203125 L 23.40625 -50.40625 Z M 25.203125 -37.796875 L 25.203125 -48.59375 L 36 -48.59375 L 36 -37.796875 Z M 12.59375 -63 L 12.59375 -73.796875 L 23.40625 -73.796875 L 23.40625 -63 Z M 25.203125 -50.40625 L 25.203125 -61.203125 L 36 -61.203125 L 36 -50.40625 Z M 37.796875 -37.796875 L 37.796875 -48.59375 L 48.59375 -48.59375 L 48.59375 -37.796875 Z M 0 -88.203125 L 0 -99 L 10.796875 -99 L 10.796875 -88.203125 Z M 12.59375 -75.59375 L 12.59375 -86.40625 L 23.40625 -86.40625 L 23.40625 -75.59375 Z M 25.203125 -63 L 25.203125 -73.796875 L 36 -73.796875 L 36 -63 Z M 12.59375 -88.203125 L 12.59375 -99 L 23.40625 -99 L 23.40625 -88.203125 Z M 12.59375 -88.203125 "/></g></g></g><g fill="#ffffff" fill-opacity="1"><g transform="translate(615.136908, 133.787683)"><g><path d="M 37.796875 -88.203125 L 37.796875 -99 L 48.59375 -99 L 48.59375 -88.203125 Z M 12.59375 0 L 12.59375 -10.796875 L 23.40625 -10.796875 L 23.40625 0 Z M 25.203125 12.59375 L 25.203125 1.796875 L 36 1.796875 L 36 12.59375 Z M 12.59375 -12.59375 L 12.59375 -23.40625 L 23.40625 -23.40625 L 23.40625 -12.59375 Z M 25.203125 0 L 25.203125 -10.796875 L 36 -10.796875 L 36 0 Z M 37.796875 12.59375 L 37.796875 1.796875 L 48.59375 1.796875 L 48.59375 12.59375 Z M 0 -37.796875 L 0 -48.59375 L 10.796875 -48.59375 L 10.796875 -37.796875 Z M 12.59375 -25.203125 L 12.59375 -36 L 23.40625 -36 L 23.40625 -25.203125 Z M 25.203125 -12.59375 L 25.203125 -23.40625 L 36 -23.40625 L 36 -12.59375 Z M 12.59375 -37.796875 L 12.59375 -48.59375 L 23.40625 -48.59375 L 23.40625 -37.796875 Z M 25.203125 -25.203125 L 25.203125 -36 L 36 -36 L 36 -25.203125 Z M 12.59375 -50.40625 L 12.59375 -61.203125 L 23.40625 -61.203125 L 23.40625 -50.40625 Z M 12.59375 -63 L 12.59375 -73.796875 L 23.40625 -73.796875 L 23.40625 -63 Z M 25.203125 -50.40625 L 25.203125 -61.203125 L 36 -61.203125 L 36 -50.40625 Z M 12.59375 -75.59375 L 12.59375 -86.40625 L 23.40625 -86.40625 L 23.40625 -75.59375 Z M 25.203125 -63 L 25.203125 -73.796875 L 36 -73.796875 L 36 -63 Z M 25.203125 -75.59375 L 25.203125 -86.40625 L 36 -86.40625 L 36 -75.59375 Z M 25.203125 -88.203125 L 25.203125 -99 L 36 -99 L 36 -88.203125 Z M 25.203125 -88.203125 "/></g></g></g><g fill="#ffffff" fill-opacity="1"><g transform="translate(676.33691, 133.787683)"><g/></g></g><g fill="#ffffff" fill-opacity="1"><g transform="translate(719.536912, 133.787683)"><g><path d="M 25.203125 -75.59375 L 25.203125 -86.40625 L 36 -86.40625 L 36 -75.59375 Z M 0 12.59375 L 0 1.796875 L 10.796875 1.796875 L 10.796875 12.59375 Z M 12.59375 12.59375 L 12.59375 1.796875 L 23.40625 1.796875 L 23.40625 12.59375 Z M 12.59375 0 L 12.59375 -10.796875 L 23.40625 -10.796875 L 23.40625 0 Z M 12.59375 -12.59375 L 12.59375 -23.40625 L 23.40625 -23.40625 L 23.40625 -12.59375 Z M 25.203125 0 L 25.203125 -10.796875 L 36 -10.796875 L 36 0 Z M 12.59375 -25.203125 L 12.59375 -36 L 23.40625 -36 L 23.40625 -25.203125 Z M 25.203125 -12.59375 L 25.203125 -23.40625 L 36 -23.40625 L 36 -12.59375 Z M 25.203125 -25.203125 L 25.203125 -36 L 36 -36 L 36 -25.203125 Z M 12.59375 -50.40625 L 12.59375 -61.203125 L 23.40625 -61.203125 L 23.40625 -50.40625 Z M 25.203125 -37.796875 L 25.203125 -48.59375 L 36 -48.59375 L 36 -37.796875 Z M 12.59375 -63 L 12.59375 -73.796875 L 23.40625 -73.796875 L 23.40625 -63 Z M 25.203125 -50.40625 L 25.203125 -61.203125 L 36 -61.203125 L 36 -50.40625 Z M 37.796875 -37.796875 L 37.796875 -48.59375 L 48.59375 -48.59375 L 48.59375 -37.796875 Z M 0 -88.203125 L 0 -99 L 10.796875 -99 L 10.796875 -88.203125 Z M 12.59375 -75.59375 L 12.59375 -86.40625 L 23.40625 -86.40625 L 23.40625 -75.59375 Z M 25.203125 -63 L 25.203125 -73.796875 L 36 -73.796875 L 36 -63 Z M 12.59375 -88.203125 L 12.59375 -99 L 23.40625 -99 L 23.40625 -88.203125 Z M 12.59375 -88.203125 "/></g></g></g><g fill="#ffffff" fill-opacity="1"><g transform="translate(186.615535, 349.787683)"><g><path d="M 37.796875 -88.203125 L 37.796875 -99 L 48.59375 -99 L 48.59375 -88.203125 Z M 12.59375 0 L 12.59375 -10.796875 L 23.40625 -10.796875 L 23.40625 0 Z M 25.203125 12.59375 L 25.203125 1.796875 L 36 1.796875 L 36 12.59375 Z M 12.59375 -12.59375 L 12.59375 -23.40625 L 23.40625 -23.40625 L 23.40625 -12.59375 Z M 25.203125 0 L 25.203125 -10.796875 L 36 -10.796875 L 36 0 Z M 37.796875 12.59375 L 37.796875 1.796875 L 48.59375 1.796875 L 48.59375 12.59375 Z M 0 -37.796875 L 0 -48.59375 L 10.796875 -48.59375 L 10.796875 -37.796875 Z M 12.59375 -25.203125 L 12.59375 -36 L 23.40625 -36 L 23.40625 -25.203125 Z M 25.203125 -12.59375 L 25.203125 -23.40625 L 36 -23.40625 L 36 -12.59375 Z M 12.59375 -37.796875 L 12.59375 -48.59375 L 23.40625 -48.59375 L 23.40625 -37.796875 Z M 25.203125 -25.203125 L 25.203125 -36 L 36 -36 L 36 -25.203125 Z M 12.59375 -50.40625 L 12.59375 -61.203125 L 23.40625 -61.203125 L 23.40625 -50.40625 Z M 12.59375 -63 L 12.59375 -73.796875 L 23.40625 -73.796875 L 23.40625 -63 Z M 25.203125 -50.40625 L 25.203125 -61.203125 L 36 -61.203125 L 36 -50.40625 Z M 12.59375 -75.59375 L 12.59375 -86.40625 L 23.40625 -86.40625 L 23.40625 -75.59375 Z M 25.203125 -63 L 25.203125 -73.796875 L 36 -73.796875 L 36 -63 Z M 25.203125 -75.59375 L 25.203125 -86.40625 L 36 -86.40625 L 36 -75.59375 Z M 25.203125 -88.203125 L 25.203125 -99 L 36 -99 L 36 -88.203125 Z M 25.203125 -88.203125 "/></g></g></g><g fill="#ffffff" fill-opacity="1"><g transform="translate(247.815537, 349.787683)"><g/></g></g><g fill="#ffffff" fill-opacity="1"><g transform="translate(291.015539, 349.787683)"><g><path d="M 25.203125 -75.59375 L 25.203125 -86.40625 L 36 -86.40625 L 36 -75.59375 Z M 0 12.59375 L 0 1.796875 L 10.796875 1.796875 L 10.796875 12.59375 Z M 12.59375 12.59375 L 12.59375 1.796875 L 23.40625 1.796875 L 23.40625 12.59375 Z M 12.59375 0 L 12.59375 -10.796875 L 23.40625 -10.796875 L 23.40625 0 Z M 12.59375 -12.59375 L 12.59375 -23.40625 L 23.40625 -23.40625 L 23.40625 -12.59375 Z M 25.203125 0 L 25.203125 -10.796875 L 36 -10.796875 L 36 0 Z M 12.59375 -25.203125 L 12.59375 -36 L 23.40625 -36 L 23.40625 -25.203125 Z M 25.203125 -12.59375 L 25.203125 -23.40625 L 36 -23.40625 L 36 -12.59375 Z M 25.203125 -25.203125 L 25.203125 -36 L 36 -36 L 36 -25.203125 Z M 12.59375 -50.40625 L 12.59375 -61.203125 L 23.40625 -61.203125 L 23.40625 -50.40625 Z M 25.203125 -37.796875 L 25.203125 -48.59375 L 36 -48.59375 L 36 -37.796875 Z M 12.59375 -63 L 12.59375 -73.796875 L 23.40625 -73.796875 L 23.40625 -63 Z M 25.203125 -50.40625 L 25.203125 -61.203125 L 36 -61.203125 L 36 -50.40625 Z M 37.796875 -37.796875 L 37.796875 -48.59375 L 48.59375 -48.59375 L 48.59375 -37.796875 Z M 0 -88.203125 L 0 -99 L 10.796875 -99 L 10.796875 -88.203125 Z M 12.59375 -75.59375 L 12.59375 -86.40625 L 23.40625 -86.40625 L 23.40625 -75.59375 Z M 25.203125 -63 L 25.203125 -73.796875 L 36 -73.796875 L 36 -63 Z M 12.59375 -88.203125 L 12.59375 -99 L 23.40625 -99 L 23.40625 -88.203125 Z M 12.59375 -88.203125 "/></g></g></g><g fill="#ffffff" fill-opacity="1"><g transform="translate(470.69054, 349.787683)"><g><path d="M 37.796875 -88.203125 L 37.796875 -99 L 48.59375 -99 L 48.59375 -88.203125 Z M 12.59375 0 L 12.59375 -10.796875 L 23.40625 -10.796875 L 23.40625 0 Z M 25.203125 12.59375 L 25.203125 1.796875 L 36 1.796875 L 36 12.59375 Z M 12.59375 -12.59375 L 12.59375 -23.40625 L 23.40625 -23.40625 L 23.40625 -12.59375 Z M 25.203125 0 L 25.203125 -10.796875 L 36 -10.796875 L 36 0 Z M 37.796875 12.59375 L 37.796875 1.796875 L 48.59375 1.796875 L 48.59375 12.59375 Z M 0 -37.796875 L 0 -48.59375 L 10.796875 -48.59375 L 10.796875 -37.796875 Z M 12.59375 -25.203125 L 12.59375 -36 L 23.40625 -36 L 23.40625 -25.203125 Z M 25.203125 -12.59375 L 25.203125 -23.40625 L 36 -23.40625 L 36 -12.59375 Z M 12.59375 -37.796875 L 12.59375 -48.59375 L 23.40625 -48.59375 L 23.40625 -37.796875 Z M 25.203125 -25.203125 L 25.203125 -36 L 36 -36 L 36 -25.203125 Z M 12.59375 -50.40625 L 12.59375 -61.203125 L 23.40625 -61.203125 L 23.40625 -50.40625 Z M 12.59375 -63 L 12.59375 -73.796875 L 23.40625 -73.796875 L 23.40625 -63 Z M 25.203125 -50.40625 L 25.203125 -61.203125 L 36 -61.203125 L 36 -50.40625 Z M 12.59375 -75.59375 L 12.59375 -86.40625 L 23.40625 -86.40625 L 23.40625 -75.59375 Z M 25.203125 -63 L 25.203125 -73.796875 L 36 -73.796875 L 36 -63 Z M 25.203125 -75.59375 L 25.203125 -86.40625 L 36 -86.40625 L 36 -75.59375 Z M 25.203125 -88.203125 L 25.203125 -99 L 36 -99 L 36 -88.203125 Z M 25.203125 -88.203125 "/></g></g></g><g fill="#ffffff" fill-opacity="1"><g transform="translate(531.890541, 349.787683)"><g/></g></g><g fill="#ffffff" fill-opacity="1"><g transform="translate(575.090543, 349.787683)"><g><path d="M 25.203125 -75.59375 L 25.203125 -86.40625 L 36 -86.40625 L 36 -75.59375 Z M 0 12.59375 L 0 1.796875 L 10.796875 1.796875 L 10.796875 12.59375 Z M 12.59375 12.59375 L 12.59375 1.796875 L 23.40625 1.796875 L 23.40625 12.59375 Z M 12.59375 0 L 12.59375 -10.796875 L 23.40625 -10.796875 L 23.40625 0 Z M 12.59375 -12.59375 L 12.59375 -23.40625 L 23.40625 -23.40625 L 23.40625 -12.59375 Z M 25.203125 0 L 25.203125 -10.796875 L 36 -10.796875 L 36 0 Z M 12.59375 -25.203125 L 12.59375 -36 L 23.40625 -36 L 23.40625 -25.203125 Z M 25.203125 -12.59375 L 25.203125 -23.40625 L 36 -23.40625 L 36 -12.59375 Z M 25.203125 -25.203125 L 25.203125 -36 L 36 -36 L 36 -25.203125 Z M 12.59375 -50.40625 L 12.59375 -61.203125 L 23.40625 -61.203125 L 23.40625 -50.40625 Z M 25.203125 -37.796875 L 25.203125 -48.59375 L 36 -48.59375 L 36 -37.796875 Z M 12.59375 -63 L 12.59375 -73.796875 L 23.40625 -73.796875 L 23.40625 -63 Z M 25.203125 -50.40625 L 25.203125 -61.203125 L 36 -61.203125 L 36 -50.40625 Z M 37.796875 -37.796875 L 37.796875 -48.59375 L 48.59375 -48.59375 L 48.59375 -37.796875 Z M 0 -88.203125 L 0 -99 L 10.796875 -99 L 10.796875 -88.203125 Z M 12.59375 -75.59375 L 12.59375 -86.40625 L 23.40625 -86.40625 L 23.40625 -75.59375 Z M 25.203125 -63 L 25.203125 -73.796875 L 36 -73.796875 L 36 -63 Z M 12.59375 -88.203125 L 12.59375 -99 L 23.40625 -99 L 23.40625 -88.203125 Z M 12.59375 -88.203125 "/></g></g></g><g fill="#ffffff" fill-opacity="1"><g transform="translate(755.124701, 349.787683)"><g><path d="M 37.796875 -88.203125 L 37.796875 -99 L 48.59375 -99 L 48.59375 -88.203125 Z M 12.59375 0 L 12.59375 -10.796875 L 23.40625 -10.796875 L 23.40625 0 Z M 25.203125 12.59375 L 25.203125 1.796875 L 36 1.796875 L 36 12.59375 Z M 12.59375 -12.59375 L 12.59375 -23.40625 L 23.40625 -23.40625 L 23.40625 -12.59375 Z M 25.203125 0 L 25.203125 -10.796875 L 36 -10.796875 L 36 0 Z M 37.796875 12.59375 L 37.796875 1.796875 L 48.59375 1.796875 L 48.59375 12.59375 Z M 0 -37.796875 L 0 -48.59375 L 10.796875 -48.59375 L 10.796875 -37.796875 Z M 12.59375 -25.203125 L 12.59375 -36 L 23.40625 -36 L 23.40625 -25.203125 Z M 25.203125 -12.59375 L 25.203125 -23.40625 L 36 -23.40625 L 36 -12.59375 Z M 12.59375 -37.796875 L 12.59375 -48.59375 L 23.40625 -48.59375 L 23.40625 -37.796875 Z M 25.203125 -25.203125 L 25.203125 -36 L 36 -36 L 36 -25.203125 Z M 12.59375 -50.40625 L 12.59375 -61.203125 L 23.40625 -61.203125 L 23.40625 -50.40625 Z M 12.59375 -63 L 12.59375 -73.796875 L 23.40625 -73.796875 L 23.40625 -63 Z M 25.203125 -50.40625 L 25.203125 -61.203125 L 36 -61.203125 L 36 -50.40625 Z M 12.59375 -75.59375 L 12.59375 -86.40625 L 23.40625 -86.40625 L 23.40625 -75.59375 Z M 25.203125 -63 L 25.203125 -73.796875 L 36 -73.796875 L 36 -63 Z M 25.203125 -75.59375 L 25.203125 -86.40625 L 36 -86.40625 L 36 -75.59375 Z M 25.203125 -88.203125 L 25.203125 -99 L 36 -99 L 36 -88.203125 Z M 25.203125 -88.203125 "/></g></g></g><g fill="#ffffff" fill-opacity="1"><g transform="translate(46.807325, 565.787658)"><g><path d="M 37.796875 -88.203125 L 37.796875 -99 L 48.59375 -99 L 48.59375 -88.203125 Z M 12.59375 0 L 12.59375 -10.796875 L 23.40625 -10.796875 L 23.40625 0 Z M 25.203125 12.59375 L 25.203125 1.796875 L 36 1.796875 L 36 12.59375 Z M 12.59375 -12.59375 L 12.59375 -23.40625 L 23.40625 -23.40625 L 23.40625 -12.59375 Z M 25.203125 0 L 25.203125 -10.796875 L 36 -10.796875 L 36 0 Z M 37.796875 12.59375 L 37.796875 1.796875 L 48.59375 1.796875 L 48.59375 12.59375 Z M 0 -37.796875 L 0 -48.59375 L 10.796875 -48.59375 L 10.796875 -37.796875 Z M 12.59375 -25.203125 L 12.59375 -36 L 23.40625 -36 L 23.40625 -25.203125 Z M 25.203125 -12.59375 L 25.203125 -23.40625 L 36 -23.40625 L 36 -12.59375 Z M 12.59375 -37.796875 L 12.59375 -48.59375 L 23.40625 -48.59375 L 23.40625 -37.796875 Z M 25.203125 -25.203125 L 25.203125 -36 L 36 -36 L 36 -25.203125 Z M 12.59375 -50.40625 L 12.59375 -61.203125 L 23.40625 -61.203125 L 23.40625 -50.40625 Z M 12.59375 -63 L 12.59375 -73.796875 L 23.40625 -73.796875 L 23.40625 -63 Z M 25.203125 -50.40625 L 25.203125 -61.203125 L 36 -61.203125 L 36 -50.40625 Z M 12.59375 -75.59375 L 12.59375 -86.40625 L 23.40625 -86.40625 L 23.40625 -75.59375 Z M 25.203125 -63 L 25.203125 -73.796875 L 36 -73.796875 L 36 -63 Z M 25.203125 -75.59375 L 25.203125 -86.40625 L 36 -86.40625 L 36 -75.59375 Z M 25.203125 -88.203125 L 25.203125 -99 L 36 -99 L 36 -88.203125 Z M 25.203125 -88.203125 "/></g></g></g><g fill="#ffffff" fill-opacity="1"><g transform="translate(108.007326, 565.787658)"><g/></g></g><g fill="#ffffff" fill-opacity="1"><g transform="translate(151.207329, 565.787658)"><g><path d="M 25.203125 -75.59375 L 25.203125 -86.40625 L 36 -86.40625 L 36 -75.59375 Z M 0 12.59375 L 0 1.796875 L 10.796875 1.796875 L 10.796875 12.59375 Z M 12.59375 12.59375 L 12.59375 1.796875 L 23.40625 1.796875 L 23.40625 12.59375 Z M 12.59375 0 L 12.59375 -10.796875 L 23.40625 -10.796875 L 23.40625 0 Z M 12.59375 -12.59375 L 12.59375 -23.40625 L 23.40625 -23.40625 L 23.40625 -12.59375 Z M 25.203125 0 L 25.203125 -10.796875 L 36 -10.796875 L 36 0 Z M 12.59375 -25.203125 L 12.59375 -36 L 23.40625 -36 L 23.40625 -25.203125 Z M 25.203125 -12.59375 L 25.203125 -23.40625 L 36 -23.40625 L 36 -12.59375 Z M 25.203125 -25.203125 L 25.203125 -36 L 36 -36 L 36 -25.203125 Z M 12.59375 -50.40625 L 12.59375 -61.203125 L 23.40625 -61.203125 L 23.40625 -50.40625 Z M 25.203125 -37.796875 L 25.203125 -48.59375 L 36 -48.59375 L 36 -37.796875 Z M 12.59375 -63 L 12.59375 -73.796875 L 23.40625 -73.796875 L 23.40625 -63 Z M 25.203125 -50.40625 L 25.203125 -61.203125 L 36 -61.203125 L 36 -50.40625 Z M 37.796875 -37.796875 L 37.796875 -48.59375 L 48.59375 -48.59375 L 48.59375 -37.796875 Z M 0 -88.203125 L 0 -99 L 10.796875 -99 L 10.796875 -88.203125 Z M 12.59375 -75.59375 L 12.59375 -86.40625 L 23.40625 -86.40625 L 23.40625 -75.59375 Z M 25.203125 -63 L 25.203125 -73.796875 L 36 -73.796875 L 36 -63 Z M 12.59375 -88.203125 L 12.59375 -99 L 23.40625 -99 L 23.40625 -88.203125 Z M 12.59375 -88.203125 "/></g></g></g><g fill="#ffffff" fill-opacity="1"><g transform="translate(330.882291, 565.787658)"><g><path d="M 37.796875 -88.203125 L 37.796875 -99 L 48.59375 -99 L 48.59375 -88.203125 Z M 12.59375 0 L 12.59375 -10.796875 L 23.40625 -10.796875 L 23.40625 0 Z M 25.203125 12.59375 L 25.203125 1.796875 L 36 1.796875 L 36 12.59375 Z M 12.59375 -12.59375 L 12.59375 -23.40625 L 23.40625 -23.40625 L 23.40625 -12.59375 Z M 25.203125 0 L 25.203125 -10.796875 L 36 -10.796875 L 36 0 Z M 37.796875 12.59375 L 37.796875 1.796875 L 48.59375 1.796875 L 48.59375 12.59375 Z M 0 -37.796875 L 0 -48.59375 L 10.796875 -48.59375 L 10.796875 -37.796875 Z M 12.59375 -25.203125 L 12.59375 -36 L 23.40625 -36 L 23.40625 -25.203125 Z M 25.203125 -12.59375 L 25.203125 -23.40625 L 36 -23.40625 L 36 -12.59375 Z M 12.59375 -37.796875 L 12.59375 -48.59375 L 23.40625 -48.59375 L 23.40625 -37.796875 Z M 25.203125 -25.203125 L 25.203125 -36 L 36 -36 L 36 -25.203125 Z M 12.59375 -50.40625 L 12.59375 -61.203125 L 23.40625 -61.203125 L 23.40625 -50.40625 Z M 12.59375 -63 L 12.59375 -73.796875 L 23.40625 -73.796875 L 23.40625 -63 Z M 25.203125 -50.40625 L 25.203125 -61.203125 L 36 -61.203125 L 36 -50.40625 Z M 12.59375 -75.59375 L 12.59375 -86.40625 L 23.40625 -86.40625 L 23.40625 -75.59375 Z M 25.203125 -63 L 25.203125 -73.796875 L 36 -73.796875 L 36 -63 Z M 25.203125 -75.59375 L 25.203125 -86.40625 L 36 -86.40625 L 36 -75.59375 Z M 25.203125 -88.203125 L 25.203125 -99 L 36 -99 L 36 -88.203125 Z M 25.203125 -88.203125 "/></g></g></g><g fill="#ffffff" fill-opacity="1"><g transform="translate(392.082292, 565.787658)"><g/></g></g><g fill="#ffffff" fill-opacity="1"><g transform="translate(435.282294, 565.787658)"><g><path d="M 25.203125 -75.59375 L 25.203125 -86.40625 L 36 -86.40625 L 36 -75.59375 Z M 0 12.59375 L 0 1.796875 L 10.796875 1.796875 L 10.796875 12.59375 Z M 12.59375 12.59375 L 12.59375 1.796875 L 23.40625 1.796875 L 23.40625 12.59375 Z M 12.59375 0 L 12.59375 -10.796875 L 23.40625 -10.796875 L 23.40625 0 Z M 12.59375 -12.59375 L 12.59375 -23.40625 L 23.40625 -23.40625 L 23.40625 -12.59375 Z M 25.203125 0 L 25.203125 -10.796875 L 36 -10.796875 L 36 0 Z M 12.59375 -25.203125 L 12.59375 -36 L 23.40625 -36 L 23.40625 -25.203125 Z M 25.203125 -12.59375 L 25.203125 -23.40625 L 36 -23.40625 L 36 -12.59375 Z M 25.203125 -25.203125 L 25.203125 -36 L 36 -36 L 36 -25.203125 Z M 12.59375 -50.40625 L 12.59375 -61.203125 L 23.40625 -61.203125 L 23.40625 -50.40625 Z M 25.203125 -37.796875 L 25.203125 -48.59375 L 36 -48.59375 L 36 -37.796875 Z M 12.59375 -63 L 12.59375 -73.796875 L 23.40625 -73.796875 L 23.40625 -63 Z M 25.203125 -50.40625 L 25.203125 -61.203125 L 36 -61.203125 L 36 -50.40625 Z M 37.796875 -37.796875 L 37.796875 -48.59375 L 48.59375 -48.59375 L 48.59375 -37.796875 Z M 0 -88.203125 L 0 -99 L 10.796875 -99 L 10.796875 -88.203125 Z M 12.59375 -75.59375 L 12.59375 -86.40625 L 23.40625 -86.40625 L 23.40625 -75.59375 Z M 25.203125 -63 L 25.203125 -73.796875 L 36 -73.796875 L 36 -63 Z M 12.59375 -88.203125 L 12.59375 -99 L 23.40625 -99 L 23.40625 -88.203125 Z M 12.59375 -88.203125 "/></g></g></g><g fill="#ffffff" fill-opacity="1"><g transform="translate(615.3165, 565.787658)"><g><path d="M 37.796875 -88.203125 L 37.796875 -99 L 48.59375 -99 L 48.59375 -88.203125 Z M 12.59375 0 L 12.59375 -10.796875 L 23.40625 -10.796875 L 23.40625 0 Z M 25.203125 12.59375 L 25.203125 1.796875 L 36 1.796875 L 36 12.59375 Z M 12.59375 -12.59375 L 12.59375 -23.40625 L 23.40625 -23.40625 L 23.40625 -12.59375 Z M 25.203125 0 L 25.203125 -10.796875 L 36 -10.796875 L 36 0 Z M 37.796875 12.59375 L 37.796875 1.796875 L 48.59375 1.796875 L 48.59375 12.59375 Z M 0 -37.796875 L 0 -48.59375 L 10.796875 -48.59375 L 10.796875 -37.796875 Z M 12.59375 -25.203125 L 12.59375 -36 L 23.40625 -36 L 23.40625 -25.203125 Z M 25.203125 -12.59375 L 25.203125 -23.40625 L 36 -23.40625 L 36 -12.59375 Z M 12.59375 -37.796875 L 12.59375 -48.59375 L 23.40625 -48.59375 L 23.40625 -37.796875 Z M 25.203125 -25.203125 L 25.203125 -36 L 36 -36 L 36 -25.203125 Z M 12.59375 -50.40625 L 12.59375 -61.203125 L 23.40625 -61.203125 L 23.40625 -50.40625 Z M 12.59375 -63 L 12.59375 -73.796875 L 23.40625 -73.796875 L 23.40625 -63 Z M 25.203125 -50.40625 L 25.203125 -61.203125 L 36 -61.203125 L 36 -50.40625 Z M 12.59375 -75.59375 L 12.59375 -86.40625 L 23.40625 -86.40625 L 23.40625 -75.59375 Z M 25.203125 -63 L 25.203125 -73.796875 L 36 -73.796875 L 36 -63 Z M 25.203125 -75.59375 L 25.203125 -86.40625 L 36 -86.40625 L 36 -75.59375 Z M 25.203125 -88.203125 L 25.203125 -99 L 36 -99 L 36 -88.203125 Z M 25.203125 -88.203125 "/></g></g></g><g fill="#ffffff" fill-opacity="1"><g transform="translate(676.516502, 565.787658)"><g/></g></g><g fill="#ffffff" fill-opacity="1"><g transform="translate(719.716504, 565.787658)"><g><path d="M 25.203125 -75.59375 L 25.203125 -86.40625 L 36 -86.40625 L 36 -75.59375 Z M 0 12.59375 L 0 1.796875 L 10.796875 1.796875 L 10.796875 12.59375 Z M 12.59375 12.59375 L 12.59375 1.796875 L 23.40625 1.796875 L 23.40625 12.59375 Z M 12.59375 0 L 12.59375 -10.796875 L 23.40625 -10.796875 L 23.40625 0 Z M 12.59375 -12.59375 L 12.59375 -23.40625 L 23.40625 -23.40625 L 23.40625 -12.59375 Z M 25.203125 0 L 25.203125 -10.796875 L 36 -10.796875 L 36 0 Z M 12.59375 -25.203125 L 12.59375 -36 L 23.40625 -36 L 23.40625 -25.203125 Z M 25.203125 -12.59375 L 25.203125 -23.40625 L 36 -23.40625 L 36 -12.59375 Z M 25.203125 -25.203125 L 25.203125 -36 L 36 -36 L 36 -25.203125 Z M 12.59375 -50.40625 L 12.59375 -61.203125 L 23.40625 -61.203125 L 23.40625 -50.40625 Z M 25.203125 -37.796875 L 25.203125 -48.59375 L 36 -48.59375 L 36 -37.796875 Z M 12.59375 -63 L 12.59375 -73.796875 L 23.40625 -73.796875 L 23.40625 -63 Z M 25.203125 -50.40625 L 25.203125 -61.203125 L 36 -61.203125 L 36 -50.40625 Z M 37.796875 -37.796875 L 37.796875 -48.59375 L 48.59375 -48.59375 L 48.59375 -37.796875 Z M 0 -88.203125 L 0 -99 L 10.796875 -99 L 10.796875 -88.203125 Z M 12.59375 -75.59375 L 12.59375 -86.40625 L 23.40625 -86.40625 L 23.40625 -75.59375 Z M 25.203125 -63 L 25.203125 -73.796875 L 36 -73.796875 L 36 -63 Z M 12.59375 -88.203125 L 12.59375 -99 L 23.40625 -99 L 23.40625 -88.203125 Z M 12.59375 -88.203125 "/></g></g></g><g fill="#ffffff" fill-opacity="1"><g transform="translate(22.119834, 349.787683)"><g><path d="M 25.203125 -75.59375 L 25.203125 -86.40625 L 36 -86.40625 L 36 -75.59375 Z M 0 12.59375 L 0 1.796875 L 10.796875 1.796875 L 10.796875 12.59375 Z M 12.59375 12.59375 L 12.59375 1.796875 L 23.40625 1.796875 L 23.40625 12.59375 Z M 12.59375 0 L 12.59375 -10.796875 L 23.40625 -10.796875 L 23.40625 0 Z M 12.59375 -12.59375 L 12.59375 -23.40625 L 23.40625 -23.40625 L 23.40625 -12.59375 Z M 25.203125 0 L 25.203125 -10.796875 L 36 -10.796875 L 36 0 Z M 12.59375 -25.203125 L 12.59375 -36 L 23.40625 -36 L 23.40625 -25.203125 Z M 25.203125 -12.59375 L 25.203125 -23.40625 L 36 -23.40625 L 36 -12.59375 Z M 25.203125 -25.203125 L 25.203125 -36 L 36 -36 L 36 -25.203125 Z M 12.59375 -50.40625 L 12.59375 -61.203125 L 23.40625 -61.203125 L 23.40625 -50.40625 Z M 25.203125 -37.796875 L 25.203125 -48.59375 L 36 -48.59375 L 36 -37.796875 Z M 12.59375 -63 L 12.59375 -73.796875 L 23.40625 -73.796875 L 23.40625 -63 Z M 25.203125 -50.40625 L 25.203125 -61.203125 L 36 -61.203125 L 36 -50.40625 Z M 37.796875 -37.796875 L 37.796875 -48.59375 L 48.59375 -48.59375 L 48.59375 -37.796875 Z M 0 -88.203125 L 0 -99 L 10.796875 -99 L 10.796875 -88.203125 Z M 12.59375 -75.59375 L 12.59375 -86.40625 L 23.40625 -86.40625 L 23.40625 -75.59375 Z M 25.203125 -63 L 25.203125 -73.796875 L 36 -73.796875 L 36 -63 Z M 12.59375 -88.203125 L 12.59375 -99 L 23.40625 -99 L 23.40625 -88.203125 Z M 12.59375 -88.203125 "/></g></g></g><g fill="#ffffff" fill-opacity="1"><g transform="translate(201.536697, 781.787621)"><g><path d="M 37.796875 -88.203125 L 37.796875 -99 L 48.59375 -99 L 48.59375 -88.203125 Z M 12.59375 0 L 12.59375 -10.796875 L 23.40625 -10.796875 L 23.40625 0 Z M 25.203125 12.59375 L 25.203125 1.796875 L 36 1.796875 L 36 12.59375 Z M 12.59375 -12.59375 L 12.59375 -23.40625 L 23.40625 -23.40625 L 23.40625 -12.59375 Z M 25.203125 0 L 25.203125 -10.796875 L 36 -10.796875 L 36 0 Z M 37.796875 12.59375 L 37.796875 1.796875 L 48.59375 1.796875 L 48.59375 12.59375 Z M 0 -37.796875 L 0 -48.59375 L 10.796875 -48.59375 L 10.796875 -37.796875 Z M 12.59375 -25.203125 L 12.59375 -36 L 23.40625 -36 L 23.40625 -25.203125 Z M 25.203125 -12.59375 L 25.203125 -23.40625 L 36 -23.40625 L 36 -12.59375 Z M 12.59375 -37.796875 L 12.59375 -48.59375 L 23.40625 -48.59375 L 23.40625 -37.796875 Z M 25.203125 -25.203125 L 25.203125 -36 L 36 -36 L 36 -25.203125 Z M 12.59375 -50.40625 L 12.59375 -61.203125 L 23.40625 -61.203125 L 23.40625 -50.40625 Z M 12.59375 -63 L 12.59375 -73.796875 L 23.40625 -73.796875 L 23.40625 -63 Z M 25.203125 -50.40625 L 25.203125 -61.203125 L 36 -61.203125 L 36 -50.40625 Z M 12.59375 -75.59375 L 12.59375 -86.40625 L 23.40625 -86.40625 L 23.40625 -75.59375 Z M 25.203125 -63 L 25.203125 -73.796875 L 36 -73.796875 L 36 -63 Z M 25.203125 -75.59375 L 25.203125 -86.40625 L 36 -86.40625 L 36 -75.59375 Z M 25.203125 -88.203125 L 25.203125 -99 L 36 -99 L 36 -88.203125 Z M 25.203125 -88.203125 "/></g></g></g><g fill="#ffffff" fill-opacity="1"><g transform="translate(262.736699, 781.787621)"><g/></g></g><g fill="#ffffff" fill-opacity="1"><g transform="translate(305.936701, 781.787621)"><g><path d="M 25.203125 -75.59375 L 25.203125 -86.40625 L 36 -86.40625 L 36 -75.59375 Z M 0 12.59375 L 0 1.796875 L 10.796875 1.796875 L 10.796875 12.59375 Z M 12.59375 12.59375 L 12.59375 1.796875 L 23.40625 1.796875 L 23.40625 12.59375 Z M 12.59375 0 L 12.59375 -10.796875 L 23.40625 -10.796875 L 23.40625 0 Z M 12.59375 -12.59375 L 12.59375 -23.40625 L 23.40625 -23.40625 L 23.40625 -12.59375 Z M 25.203125 0 L 25.203125 -10.796875 L 36 -10.796875 L 36 0 Z M 12.59375 -25.203125 L 12.59375 -36 L 23.40625 -36 L 23.40625 -25.203125 Z M 25.203125 -12.59375 L 25.203125 -23.40625 L 36 -23.40625 L 36 -12.59375 Z M 25.203125 -25.203125 L 25.203125 -36 L 36 -36 L 36 -25.203125 Z M 12.59375 -50.40625 L 12.59375 -61.203125 L 23.40625 -61.203125 L 23.40625 -50.40625 Z M 25.203125 -37.796875 L 25.203125 -48.59375 L 36 -48.59375 L 36 -37.796875 Z M 12.59375 -63 L 12.59375 -73.796875 L 23.40625 -73.796875 L 23.40625 -63 Z M 25.203125 -50.40625 L 25.203125 -61.203125 L 36 -61.203125 L 36 -50.40625 Z M 37.796875 -37.796875 L 37.796875 -48.59375 L 48.59375 -48.59375 L 48.59375 -37.796875 Z M 0 -88.203125 L 0 -99 L 10.796875 -99 L 10.796875 -88.203125 Z M 12.59375 -75.59375 L 12.59375 -86.40625 L 23.40625 -86.40625 L 23.40625 -75.59375 Z M 25.203125 -63 L 25.203125 -73.796875 L 36 -73.796875 L 36 -63 Z M 12.59375 -88.203125 L 12.59375 -99 L 23.40625 -99 L 23.40625 -88.203125 Z M 12.59375 -88.203125 "/></g></g></g><g fill="#ffffff" fill-opacity="1"><g transform="translate(485.611651, 781.787621)"><g><path d="M 37.796875 -88.203125 L 37.796875 -99 L 48.59375 -99 L 48.59375 -88.203125 Z M 12.59375 0 L 12.59375 -10.796875 L 23.40625 -10.796875 L 23.40625 0 Z M 25.203125 12.59375 L 25.203125 1.796875 L 36 1.796875 L 36 12.59375 Z M 12.59375 -12.59375 L 12.59375 -23.40625 L 23.40625 -23.40625 L 23.40625 -12.59375 Z M 25.203125 0 L 25.203125 -10.796875 L 36 -10.796875 L 36 0 Z M 37.796875 12.59375 L 37.796875 1.796875 L 48.59375 1.796875 L 48.59375 12.59375 Z M 0 -37.796875 L 0 -48.59375 L 10.796875 -48.59375 L 10.796875 -37.796875 Z M 12.59375 -25.203125 L 12.59375 -36 L 23.40625 -36 L 23.40625 -25.203125 Z M 25.203125 -12.59375 L 25.203125 -23.40625 L 36 -23.40625 L 36 -12.59375 Z M 12.59375 -37.796875 L 12.59375 -48.59375 L 23.40625 -48.59375 L 23.40625 -37.796875 Z M 25.203125 -25.203125 L 25.203125 -36 L 36 -36 L 36 -25.203125 Z M 12.59375 -50.40625 L 12.59375 -61.203125 L 23.40625 -61.203125 L 23.40625 -50.40625 Z M 12.59375 -63 L 12.59375 -73.796875 L 23.40625 -73.796875 L 23.40625 -63 Z M 25.203125 -50.40625 L 25.203125 -61.203125 L 36 -61.203125 L 36 -50.40625 Z M 12.59375 -75.59375 L 12.59375 -86.40625 L 23.40625 -86.40625 L 23.40625 -75.59375 Z M 25.203125 -63 L 25.203125 -73.796875 L 36 -73.796875 L 36 -63 Z M 25.203125 -75.59375 L 25.203125 -86.40625 L 36 -86.40625 L 36 -75.59375 Z M 25.203125 -88.203125 L 25.203125 -99 L 36 -99 L 36 -88.203125 Z M 25.203125 -88.203125 "/></g></g></g><g fill="#ffffff" fill-opacity="1"><g transform="translate(546.811652, 781.787621)"><g/></g></g><g fill="#ffffff" fill-opacity="1"><g transform="translate(590.011655, 781.787621)"><g><path d="M 25.203125 -75.59375 L 25.203125 -86.40625 L 36 -86.40625 L 36 -75.59375 Z M 0 12.59375 L 0 1.796875 L 10.796875 1.796875 L 10.796875 12.59375 Z M 12.59375 12.59375 L 12.59375 1.796875 L 23.40625 1.796875 L 23.40625 12.59375 Z M 12.59375 0 L 12.59375 -10.796875 L 23.40625 -10.796875 L 23.40625 0 Z M 12.59375 -12.59375 L 12.59375 -23.40625 L 23.40625 -23.40625 L 23.40625 -12.59375 Z M 25.203125 0 L 25.203125 -10.796875 L 36 -10.796875 L 36 0 Z M 12.59375 -25.203125 L 12.59375 -36 L 23.40625 -36 L 23.40625 -25.203125 Z M 25.203125 -12.59375 L 25.203125 -23.40625 L 36 -23.40625 L 36 -12.59375 Z M 25.203125 -25.203125 L 25.203125 -36 L 36 -36 L 36 -25.203125 Z M 12.59375 -50.40625 L 12.59375 -61.203125 L 23.40625 -61.203125 L 23.40625 -50.40625 Z M 25.203125 -37.796875 L 25.203125 -48.59375 L 36 -48.59375 L 36 -37.796875 Z M 12.59375 -63 L 12.59375 -73.796875 L 23.40625 -73.796875 L 23.40625 -63 Z M 25.203125 -50.40625 L 25.203125 -61.203125 L 36 -61.203125 L 36 -50.40625 Z M 37.796875 -37.796875 L 37.796875 -48.59375 L 48.59375 -48.59375 L 48.59375 -37.796875 Z M 0 -88.203125 L 0 -99 L 10.796875 -99 L 10.796875 -88.203125 Z M 12.59375 -75.59375 L 12.59375 -86.40625 L 23.40625 -86.40625 L 23.40625 -75.59375 Z M 25.203125 -63 L 25.203125 -73.796875 L 36 -73.796875 L 36 -63 Z M 12.59375 -88.203125 L 12.59375 -99 L 23.40625 -99 L 23.40625 -88.203125 Z M 12.59375 -88.203125 "/></g></g></g><g fill="#ffffff" fill-opacity="1"><g transform="translate(770.045885, 781.787621)"><g><path d="M 37.796875 -88.203125 L 37.796875 -99 L 48.59375 -99 L 48.59375 -88.203125 Z M 12.59375 0 L 12.59375 -10.796875 L 23.40625 -10.796875 L 23.40625 0 Z M 25.203125 12.59375 L 25.203125 1.796875 L 36 1.796875 L 36 12.59375 Z M 12.59375 -12.59375 L 12.59375 -23.40625 L 23.40625 -23.40625 L 23.40625 -12.59375 Z M 25.203125 0 L 25.203125 -10.796875 L 36 -10.796875 L 36 0 Z M 37.796875 12.59375 L 37.796875 1.796875 L 48.59375 1.796875 L 48.59375 12.59375 Z M 0 -37.796875 L 0 -48.59375 L 10.796875 -48.59375 L 10.796875 -37.796875 Z M 12.59375 -25.203125 L 12.59375 -36 L 23.40625 -36 L 23.40625 -25.203125 Z M 25.203125 -12.59375 L 25.203125 -23.40625 L 36 -23.40625 L 36 -12.59375 Z M 12.59375 -37.796875 L 12.59375 -48.59375 L 23.40625 -48.59375 L 23.40625 -37.796875 Z M 25.203125 -25.203125 L 25.203125 -36 L 36 -36 L 36 -25.203125 Z M 12.59375 -50.40625 L 12.59375 -61.203125 L 23.40625 -61.203125 L 23.40625 -50.40625 Z M 12.59375 -63 L 12.59375 -73.796875 L 23.40625 -73.796875 L 23.40625 -63 Z M 25.203125 -50.40625 L 25.203125 -61.203125 L 36 -61.203125 L 36 -50.40625 Z M 12.59375 -75.59375 L 12.59375 -86.40625 L 23.40625 -86.40625 L 23.40625 -75.59375 Z M 25.203125 -63 L 25.203125 -73.796875 L 36 -73.796875 L 36 -63 Z M 25.203125 -75.59375 L 25.203125 -86.40625 L 36 -86.40625 L 36 -75.59375 Z M 25.203125 -88.203125 L 25.203125 -99 L 36 -99 L 36 -88.203125 Z M 25.203125 -88.203125 "/></g></g></g><g fill="#ffffff" fill-opacity="1"><g transform="translate(37.040995, 781.787621)"><g><path d="M 25.203125 -75.59375 L 25.203125 -86.40625 L 36 -86.40625 L 36 -75.59375 Z M 0 12.59375 L 0 1.796875 L 10.796875 1.796875 L 10.796875 12.59375 Z M 12.59375 12.59375 L 12.59375 1.796875 L 23.40625 1.796875 L 23.40625 12.59375 Z M 12.59375 0 L 12.59375 -10.796875 L 23.40625 -10.796875 L 23.40625 0 Z M 12.59375 -12.59375 L 12.59375 -23.40625 L 23.40625 -23.40625 L 23.40625 -12.59375 Z M 25.203125 0 L 25.203125 -10.796875 L 36 -10.796875 L 36 0 Z M 12.59375 -25.203125 L 12.59375 -36 L 23.40625 -36 L 23.40625 -25.203125 Z M 25.203125 -12.59375 L 25.203125 -23.40625 L 36 -23.40625 L 36 -12.59375 Z M 25.203125 -25.203125 L 25.203125 -36 L 36 -36 L 36 -25.203125 Z M 12.59375 -50.40625 L 12.59375 -61.203125 L 23.40625 -61.203125 L 23.40625 -50.40625 Z M 25.203125 -37.796875 L 25.203125 -48.59375 L 36 -48.59375 L 36 -37.796875 Z M 12.59375 -63 L 12.59375 -73.796875 L 23.40625 -73.796875 L 23.40625 -63 Z M 25.203125 -50.40625 L 25.203125 -61.203125 L 36 -61.203125 L 36 -50.40625 Z M 37.796875 -37.796875 L 37.796875 -48.59375 L 48.59375 -48.59375 L 48.59375 -37.796875 Z M 0 -88.203125 L 0 -99 L 10.796875 -99 L 10.796875 -88.203125 Z M 12.59375 -75.59375 L 12.59375 -86.40625 L 23.40625 -86.40625 L 23.40625 -75.59375 Z M 25.203125 -63 L 25.203125 -73.796875 L 36 -73.796875 L 36 -63 Z M 12.59375 -88.203125 L 12.59375 -99 L 23.40625 -99 L 23.40625 -88.203125 Z M 12.59375 -88.203125 "/></g></g></g></svg>