<svg xmlns="http://www.w3.org/2000/svg" xmlns:xlink="http://www.w3.org/1999/xlink" width="109" zoomAndPan="magnify" viewBox="0 0 81.75 42.75" height="57" preserveAspectRatio="xMidYMid meet" version="1.0"><defs><g/><clipPath id="b8eb750079"><path d="M 46.269531 21.25 L 79 21.25 L 79 31.691406 L 46.269531 31.691406 Z M 46.269531 21.25 " clip-rule="nonzero"/></clipPath><clipPath id="85f05acf07"><path d="M 46.324219 30.113281 C 46.324219 29.253906 47.066406 28.585938 47.917969 28.679688 L 73.265625 31.550781 C 76.515625 31.921875 79.265625 29.164062 78.917969 25.890625 C 78.554688 22.484375 75.042969 20.378906 71.894531 21.683594 L 48.300781 31.449219 C 47.359375 31.839844 46.324219 31.140625 46.324219 30.113281 Z M 46.324219 30.113281 " clip-rule="nonzero"/></clipPath><linearGradient x1="805.977189" gradientTransform="matrix(0.14405, 0, 0, 0.144985, 46.322843, 21.250729)" y1="187.482008" x2="763.259166" gradientUnits="userSpaceOnUse" y2="319.316701" id="f9c9e0a9b5"><stop stop-opacity="1" stop-color="rgb(79.396057%, 31.88324%, 49.559021%)" offset="0"/><stop stop-opacity="1" stop-color="rgb(79.36554%, 31.802368%, 49.729919%)" offset="0.0078125"/><stop stop-opacity="1" stop-color="rgb(79.30603%, 31.642151%, 50.071716%)" offset="0.015625"/><stop stop-opacity="1" stop-color="rgb(79.246521%, 31.481934%, 50.413513%)" offset="0.0234375"/><stop stop-opacity="1" stop-color="rgb(79.187012%, 31.321716%, 50.75531%)" offset="0.03125"/><stop stop-opacity="1" stop-color="rgb(79.127502%, 31.161499%, 51.097107%)" offset="0.0390625"/><stop stop-opacity="1" stop-color="rgb(79.067993%, 30.999756%, 51.438904%)" offset="0.046875"/><stop stop-opacity="1" stop-color="rgb(79.008484%, 30.839539%, 51.780701%)" offset="0.0546875"/><stop stop-opacity="1" stop-color="rgb(78.948975%, 30.679321%, 52.124023%)" offset="0.0625"/><stop stop-opacity="1" stop-color="rgb(78.889465%, 30.519104%, 52.46582%)" offset="0.0703125"/><stop stop-opacity="1" stop-color="rgb(78.82843%, 30.357361%, 52.807617%)" offset="0.078125"/><stop stop-opacity="1" stop-color="rgb(78.768921%, 30.197144%, 53.149414%)" offset="0.0859375"/><stop stop-opacity="1" stop-color="rgb(78.709412%, 30.036926%, 53.491211%)" offset="0.09375"/><stop stop-opacity="1" stop-color="rgb(78.649902%, 29.876709%, 53.833008%)" offset="0.101562"/><stop stop-opacity="1" stop-color="rgb(78.590393%, 29.714966%, 54.174805%)" offset="0.109375"/><stop stop-opacity="1" stop-color="rgb(78.530884%, 29.554749%, 54.516602%)" offset="0.117187"/><stop stop-opacity="1" stop-color="rgb(78.471375%, 29.394531%, 54.858398%)" offset="0.125"/><stop stop-opacity="1" stop-color="rgb(78.411865%, 29.234314%, 55.201721%)" offset="0.132812"/><stop stop-opacity="1" stop-color="rgb(78.352356%, 29.074097%, 55.543518%)" offset="0.140625"/><stop stop-opacity="1" stop-color="rgb(78.292847%, 28.912354%, 55.885315%)" offset="0.148437"/><stop stop-opacity="1" stop-color="rgb(78.233337%, 28.752136%, 56.227112%)" offset="0.15625"/><stop stop-opacity="1" stop-color="rgb(78.173828%, 28.591919%, 56.568909%)" offset="0.164062"/><stop stop-opacity="1" stop-color="rgb(78.112793%, 28.431702%, 56.910706%)" offset="0.171875"/><stop stop-opacity="1" stop-color="rgb(78.053284%, 28.269958%, 57.252502%)" offset="0.179687"/><stop stop-opacity="1" stop-color="rgb(77.993774%, 28.109741%, 57.594299%)" offset="0.1875"/><stop stop-opacity="1" stop-color="rgb(77.934265%, 27.949524%, 57.936096%)" offset="0.195312"/><stop stop-opacity="1" stop-color="rgb(77.874756%, 27.789307%, 58.279419%)" offset="0.203125"/><stop stop-opacity="1" stop-color="rgb(77.815247%, 27.627563%, 58.621216%)" offset="0.210937"/><stop stop-opacity="1" stop-color="rgb(77.755737%, 27.467346%, 58.963013%)" offset="0.21875"/><stop stop-opacity="1" stop-color="rgb(77.696228%, 27.307129%, 59.30481%)" offset="0.226562"/><stop stop-opacity="1" stop-color="rgb(77.636719%, 27.146912%, 59.646606%)" offset="0.234375"/><stop stop-opacity="1" stop-color="rgb(77.577209%, 26.985168%, 59.988403%)" offset="0.242187"/><stop stop-opacity="1" stop-color="rgb(77.5177%, 26.824951%, 60.3302%)" offset="0.25"/><stop stop-opacity="1" stop-color="rgb(77.456665%, 26.664734%, 60.671997%)" offset="0.257812"/><stop stop-opacity="1" stop-color="rgb(77.397156%, 26.504517%, 61.013794%)" offset="0.265625"/><stop stop-opacity="1" stop-color="rgb(77.337646%, 26.344299%, 61.357117%)" offset="0.273437"/><stop stop-opacity="1" stop-color="rgb(77.278137%, 26.182556%, 61.698914%)" offset="0.28125"/><stop stop-opacity="1" stop-color="rgb(77.218628%, 26.022339%, 62.04071%)" offset="0.289062"/><stop stop-opacity="1" stop-color="rgb(77.159119%, 25.862122%, 62.382507%)" offset="0.296875"/><stop stop-opacity="1" stop-color="rgb(77.099609%, 25.701904%, 62.724304%)" offset="0.304687"/><stop stop-opacity="1" stop-color="rgb(77.0401%, 25.540161%, 63.066101%)" offset="0.3125"/><stop stop-opacity="1" stop-color="rgb(76.980591%, 25.379944%, 63.407898%)" offset="0.320312"/><stop stop-opacity="1" stop-color="rgb(76.921082%, 25.219727%, 63.749695%)" offset="0.328125"/><stop stop-opacity="1" stop-color="rgb(76.861572%, 25.059509%, 64.091492%)" offset="0.335937"/><stop stop-opacity="1" stop-color="rgb(76.802063%, 24.897766%, 64.434814%)" offset="0.34375"/><stop stop-opacity="1" stop-color="rgb(76.741028%, 24.737549%, 64.776611%)" offset="0.351562"/><stop stop-opacity="1" stop-color="rgb(76.681519%, 24.577332%, 65.118408%)" offset="0.359375"/><stop stop-opacity="1" stop-color="rgb(76.622009%, 24.417114%, 65.460205%)" offset="0.367187"/><stop stop-opacity="1" stop-color="rgb(76.5625%, 24.256897%, 65.802002%)" offset="0.375"/><stop stop-opacity="1" stop-color="rgb(76.502991%, 24.095154%, 66.143799%)" offset="0.382812"/><stop stop-opacity="1" stop-color="rgb(76.443481%, 23.934937%, 66.485596%)" offset="0.390625"/><stop stop-opacity="1" stop-color="rgb(76.383972%, 23.774719%, 66.827393%)" offset="0.398437"/><stop stop-opacity="1" stop-color="rgb(76.324463%, 23.614502%, 67.169189%)" offset="0.40625"/><stop stop-opacity="1" stop-color="rgb(76.264954%, 23.452759%, 67.512512%)" offset="0.414062"/><stop stop-opacity="1" stop-color="rgb(76.205444%, 23.292542%, 67.854309%)" offset="0.421875"/><stop stop-opacity="1" stop-color="rgb(76.145935%, 23.132324%, 68.196106%)" offset="0.429687"/><stop stop-opacity="1" stop-color="rgb(76.0849%, 22.972107%, 68.537903%)" offset="0.4375"/><stop stop-opacity="1" stop-color="rgb(76.025391%, 22.810364%, 68.8797%)" offset="0.445312"/><stop stop-opacity="1" stop-color="rgb(75.965881%, 22.650146%, 69.221497%)" offset="0.453125"/><stop stop-opacity="1" stop-color="rgb(75.906372%, 22.489929%, 69.563293%)" offset="0.460937"/><stop stop-opacity="1" stop-color="rgb(75.846863%, 22.329712%, 69.90509%)" offset="0.46875"/><stop stop-opacity="1" stop-color="rgb(75.787354%, 22.167969%, 70.246887%)" offset="0.476562"/><stop stop-opacity="1" stop-color="rgb(75.727844%, 22.007751%, 70.59021%)" offset="0.484375"/><stop stop-opacity="1" stop-color="rgb(75.668335%, 21.847534%, 70.932007%)" offset="0.492187"/><stop stop-opacity="1" stop-color="rgb(75.608826%, 21.687317%, 71.273804%)" offset="0.494246"/><stop stop-opacity="1" stop-color="rgb(75.579834%, 21.607971%, 71.444702%)" offset="0.5"/><stop stop-opacity="1" stop-color="rgb(75.549316%, 21.5271%, 71.615601%)" offset="0.505754"/><stop stop-opacity="1" stop-color="rgb(75.520325%, 21.446228%, 71.786499%)" offset="0.507812"/><stop stop-opacity="1" stop-color="rgb(75.489807%, 21.365356%, 71.957397%)" offset="0.515625"/><stop stop-opacity="1" stop-color="rgb(75.430298%, 21.205139%, 72.299194%)" offset="0.523437"/><stop stop-opacity="1" stop-color="rgb(75.369263%, 21.044922%, 72.640991%)" offset="0.53125"/><stop stop-opacity="1" stop-color="rgb(75.309753%, 20.884705%, 72.982788%)" offset="0.539062"/><stop stop-opacity="1" stop-color="rgb(75.250244%, 20.722961%, 73.324585%)" offset="0.546875"/><stop stop-opacity="1" stop-color="rgb(75.190735%, 20.562744%, 73.667908%)" offset="0.554687"/><stop stop-opacity="1" stop-color="rgb(75.131226%, 20.402527%, 74.009705%)" offset="0.5625"/><stop stop-opacity="1" stop-color="rgb(75.071716%, 20.24231%, 74.351501%)" offset="0.570312"/><stop stop-opacity="1" stop-color="rgb(75.012207%, 20.080566%, 74.693298%)" offset="0.578125"/><stop stop-opacity="1" stop-color="rgb(74.952698%, 19.920349%, 75.035095%)" offset="0.585937"/><stop stop-opacity="1" stop-color="rgb(74.893188%, 19.760132%, 75.376892%)" offset="0.59375"/><stop stop-opacity="1" stop-color="rgb(74.833679%, 19.599915%, 75.718689%)" offset="0.601562"/><stop stop-opacity="1" stop-color="rgb(74.77417%, 19.439697%, 76.060486%)" offset="0.609375"/><stop stop-opacity="1" stop-color="rgb(74.713135%, 19.277954%, 76.402283%)" offset="0.617187"/><stop stop-opacity="1" stop-color="rgb(74.653625%, 19.117737%, 76.745605%)" offset="0.625"/><stop stop-opacity="1" stop-color="rgb(74.594116%, 18.95752%, 77.087402%)" offset="0.632812"/><stop stop-opacity="1" stop-color="rgb(74.534607%, 18.797302%, 77.429199%)" offset="0.640625"/><stop stop-opacity="1" stop-color="rgb(74.475098%, 18.635559%, 77.770996%)" offset="0.648437"/><stop stop-opacity="1" stop-color="rgb(74.415588%, 18.475342%, 78.112793%)" offset="0.65625"/><stop stop-opacity="1" stop-color="rgb(74.356079%, 18.315125%, 78.45459%)" offset="0.664062"/><stop stop-opacity="1" stop-color="rgb(74.29657%, 18.154907%, 78.796387%)" offset="0.671875"/><stop stop-opacity="1" stop-color="rgb(74.237061%, 17.993164%, 79.138184%)" offset="0.679687"/><stop stop-opacity="1" stop-color="rgb(74.177551%, 17.832947%, 79.47998%)" offset="0.6875"/><stop stop-opacity="1" stop-color="rgb(74.118042%, 17.672729%, 79.823303%)" offset="0.695312"/><stop stop-opacity="1" stop-color="rgb(74.058533%, 17.512512%, 80.1651%)" offset="0.703125"/><stop stop-opacity="1" stop-color="rgb(73.997498%, 17.350769%, 80.506897%)" offset="0.710937"/><stop stop-opacity="1" stop-color="rgb(73.937988%, 17.190552%, 80.848694%)" offset="0.71875"/><stop stop-opacity="1" stop-color="rgb(73.878479%, 17.030334%, 81.190491%)" offset="0.726562"/><stop stop-opacity="1" stop-color="rgb(73.81897%, 16.870117%, 81.532288%)" offset="0.734375"/><stop stop-opacity="1" stop-color="rgb(73.75946%, 16.7099%, 81.874084%)" offset="0.742187"/><stop stop-opacity="1" stop-color="rgb(73.699951%, 16.548157%, 82.215881%)" offset="0.75"/><stop stop-opacity="1" stop-color="rgb(73.640442%, 16.387939%, 82.557678%)" offset="0.757812"/><stop stop-opacity="1" stop-color="rgb(73.580933%, 16.227722%, 82.901001%)" offset="0.765625"/><stop stop-opacity="1" stop-color="rgb(73.521423%, 16.067505%, 83.242798%)" offset="0.773437"/><stop stop-opacity="1" stop-color="rgb(73.461914%, 15.905762%, 83.584595%)" offset="0.78125"/><stop stop-opacity="1" stop-color="rgb(73.402405%, 15.745544%, 83.926392%)" offset="0.789062"/><stop stop-opacity="1" stop-color="rgb(73.34137%, 15.585327%, 84.268188%)" offset="0.796875"/><stop stop-opacity="1" stop-color="rgb(73.28186%, 15.42511%, 84.609985%)" offset="0.804688"/><stop stop-opacity="1" stop-color="rgb(73.222351%, 15.263367%, 84.951782%)" offset="0.8125"/><stop stop-opacity="1" stop-color="rgb(73.162842%, 15.103149%, 85.293579%)" offset="0.820312"/><stop stop-opacity="1" stop-color="rgb(73.103333%, 14.942932%, 85.635376%)" offset="0.828125"/><stop stop-opacity="1" stop-color="rgb(73.043823%, 14.782715%, 85.978699%)" offset="0.835938"/><stop stop-opacity="1" stop-color="rgb(72.984314%, 14.622498%, 86.320496%)" offset="0.84375"/><stop stop-opacity="1" stop-color="rgb(72.924805%, 14.460754%, 86.662292%)" offset="0.851562"/><stop stop-opacity="1" stop-color="rgb(72.865295%, 14.300537%, 87.004089%)" offset="0.859375"/><stop stop-opacity="1" stop-color="rgb(72.805786%, 14.14032%, 87.345886%)" offset="0.867188"/><stop stop-opacity="1" stop-color="rgb(72.746277%, 13.980103%, 87.687683%)" offset="0.875"/><stop stop-opacity="1" stop-color="rgb(72.686768%, 13.818359%, 88.02948%)" offset="0.882812"/><stop stop-opacity="1" stop-color="rgb(72.625732%, 13.658142%, 88.371277%)" offset="0.890625"/><stop stop-opacity="1" stop-color="rgb(72.566223%, 13.497925%, 88.7146%)" offset="0.898438"/><stop stop-opacity="1" stop-color="rgb(72.506714%, 13.337708%, 89.056396%)" offset="0.90625"/><stop stop-opacity="1" stop-color="rgb(72.447205%, 13.175964%, 89.398193%)" offset="0.914062"/><stop stop-opacity="1" stop-color="rgb(72.387695%, 13.015747%, 89.73999%)" offset="0.921875"/><stop stop-opacity="1" stop-color="rgb(72.328186%, 12.85553%, 90.081787%)" offset="0.929688"/><stop stop-opacity="1" stop-color="rgb(72.268677%, 12.695312%, 90.423584%)" offset="0.9375"/><stop stop-opacity="1" stop-color="rgb(72.209167%, 12.533569%, 90.765381%)" offset="0.945312"/><stop stop-opacity="1" stop-color="rgb(72.149658%, 12.373352%, 91.107178%)" offset="0.953125"/><stop stop-opacity="1" stop-color="rgb(72.090149%, 12.213135%, 91.448975%)" offset="0.960938"/><stop stop-opacity="1" stop-color="rgb(72.03064%, 12.052917%, 91.792297%)" offset="0.96875"/><stop stop-opacity="1" stop-color="rgb(71.969604%, 11.8927%, 92.134094%)" offset="0.976562"/><stop stop-opacity="1" stop-color="rgb(71.910095%, 11.730957%, 92.475891%)" offset="0.984375"/><stop stop-opacity="1" stop-color="rgb(71.850586%, 11.57074%, 92.817688%)" offset="0.992188"/><stop stop-opacity="1" stop-color="rgb(71.791077%, 11.410522%, 93.159485%)" offset="1"/></linearGradient></defs><g clip-path="url(#b8eb750079)"><g clip-path="url(#85f05acf07)"><path fill="url(#f9c9e0a9b5)" d="M 46.324219 21.25 L 46.324219 31.691406 L 79.078125 31.691406 L 79.078125 21.25 Z M 46.324219 21.25 " fill-rule="nonzero"/></g></g><g fill="#ffffff" fill-opacity="1"><g transform="translate(7.083936, 29.845229)"><g><path d="M 8.34375 -16.921875 L 11.828125 -16.921875 L 11.828125 -5.203125 C 11.828125 -4.128906 11.585938 -3.175781 11.109375 -2.34375 C 10.628906 -1.519531 9.957031 -0.882812 9.09375 -0.4375 C 8.226562 0.0078125 7.25 0.234375 6.15625 0.234375 C 4.363281 0.234375 2.96875 -0.21875 1.96875 -1.125 C 0.96875 -2.039062 0.46875 -3.332031 0.46875 -5 L 3.96875 -5 C 3.96875 -4.164062 4.140625 -3.550781 4.484375 -3.15625 C 4.835938 -2.757812 5.394531 -2.5625 6.15625 -2.5625 C 6.820312 -2.5625 7.351562 -2.789062 7.75 -3.25 C 8.144531 -3.707031 8.34375 -4.359375 8.34375 -5.203125 Z M 8.34375 -16.921875 "/></g></g></g><g fill="#ffffff" fill-opacity="1"><g transform="translate(20.379703, 29.845229)"><g><path d="M 8.828125 -1.28125 C 7.992188 -0.269531 6.847656 0.234375 5.390625 0.234375 C 4.035156 0.234375 3.003906 -0.148438 2.296875 -0.921875 C 1.585938 -1.703125 1.222656 -2.84375 1.203125 -4.34375 L 1.203125 -12.578125 L 4.5625 -12.578125 L 4.5625 -4.453125 C 4.5625 -3.140625 5.160156 -2.484375 6.359375 -2.484375 C 7.492188 -2.484375 8.273438 -2.878906 8.703125 -3.671875 L 8.703125 -12.578125 L 12.078125 -12.578125 L 12.078125 0 L 8.921875 0 Z M 8.828125 -1.28125 "/></g></g></g><g fill="#ffffff" fill-opacity="1"><g transform="translate(33.698714, 29.845229)"><g><path d="M 4.84375 0 L 1.46875 0 L 1.46875 -17.859375 L 4.84375 -17.859375 Z M 4.84375 0 "/></g></g></g><g fill="#ffffff" fill-opacity="1"><g transform="translate(40.00956, 29.845229)"><g><path d="M 4.84375 0 L 1.46875 0 L 1.46875 -12.578125 L 4.84375 -12.578125 Z M 1.265625 -15.84375 C 1.265625 -16.34375 1.429688 -16.753906 1.765625 -17.078125 C 2.109375 -17.398438 2.570312 -17.5625 3.15625 -17.5625 C 3.726562 -17.5625 4.179688 -17.398438 4.515625 -17.078125 C 4.859375 -16.753906 5.03125 -16.34375 5.03125 -15.84375 C 5.03125 -15.320312 4.859375 -14.898438 4.515625 -14.578125 C 4.171875 -14.253906 3.710938 -14.09375 3.140625 -14.09375 C 2.578125 -14.09375 2.125 -14.253906 1.78125 -14.578125 C 1.4375 -14.898438 1.265625 -15.320312 1.265625 -15.84375 Z M 1.265625 -15.84375 "/></g></g></g><g fill="#ffffff" fill-opacity="1"><g transform="translate(46.320405, 29.845229)"><g><path d="M 8.578125 0 C 8.421875 -0.300781 8.3125 -0.675781 8.25 -1.125 C 7.425781 -0.21875 6.363281 0.234375 5.0625 0.234375 C 3.832031 0.234375 2.8125 -0.117188 2 -0.828125 C 1.195312 -1.546875 0.796875 -2.445312 0.796875 -3.53125 C 0.796875 -4.863281 1.285156 -5.882812 2.265625 -6.59375 C 3.253906 -7.3125 4.6875 -7.675781 6.5625 -7.6875 L 8.109375 -7.6875 L 8.109375 -8.40625 C 8.109375 -8.988281 7.957031 -9.453125 7.65625 -9.796875 C 7.351562 -10.148438 6.882812 -10.328125 6.25 -10.328125 C 5.675781 -10.328125 5.226562 -10.191406 4.90625 -9.921875 C 4.59375 -9.648438 4.4375 -9.273438 4.4375 -8.796875 L 1.0625 -8.796875 C 1.0625 -9.523438 1.285156 -10.195312 1.734375 -10.8125 C 2.191406 -11.4375 2.832031 -11.925781 3.65625 -12.28125 C 4.476562 -12.632812 5.398438 -12.8125 6.421875 -12.8125 C 7.972656 -12.8125 9.203125 -12.421875 10.109375 -11.640625 C 11.015625 -10.859375 11.46875 -9.765625 11.46875 -8.359375 L 11.46875 -2.90625 C 11.476562 -1.707031 11.644531 -0.804688 11.96875 -0.203125 L 11.96875 0 Z M 5.796875 -2.34375 C 6.296875 -2.34375 6.753906 -2.453125 7.171875 -2.671875 C 7.585938 -2.890625 7.898438 -3.1875 8.109375 -3.5625 L 8.109375 -5.71875 L 6.84375 -5.71875 C 5.164062 -5.71875 4.269531 -5.132812 4.15625 -3.96875 L 4.15625 -3.78125 C 4.15625 -3.363281 4.300781 -3.019531 4.59375 -2.75 C 4.882812 -2.476562 5.285156 -2.34375 5.796875 -2.34375 Z M 5.796875 -2.34375 "/></g></g></g><g fill="#ffffff" fill-opacity="1"><g transform="translate(59.081552, 29.845229)"><g><path d="M 4.390625 -12.578125 L 4.484375 -11.125 C 5.390625 -12.25 6.597656 -12.8125 8.109375 -12.8125 C 9.441406 -12.8125 10.429688 -12.421875 11.078125 -11.640625 C 11.734375 -10.859375 12.066406 -9.6875 12.078125 -8.125 L 12.078125 0 L 8.71875 0 L 8.71875 -8.046875 C 8.71875 -8.753906 8.5625 -9.269531 8.25 -9.59375 C 7.945312 -9.914062 7.429688 -10.078125 6.703125 -10.078125 C 5.765625 -10.078125 5.054688 -9.675781 4.578125 -8.875 L 4.578125 0 L 1.21875 0 L 1.21875 -12.578125 Z M 4.390625 -12.578125 "/></g></g></g></svg>