<svg xmlns="http://www.w3.org/2000/svg" width="109" height="57" version="1.0" viewBox="0 0 81.75 42.75"><defs><clipPath id="a"><path d="M46.27 21.25H79v10.441H46.27Zm0 0"/></clipPath><clipPath id="b"><path d="M46.324 30.113c0-.86.742-1.527 1.594-1.433l25.348 2.87c3.25.372 6-2.386 5.652-5.66-.363-3.406-3.875-5.511-7.023-4.206L48.3 31.449c-.942.39-1.977-.308-1.977-1.336m0 0"/></clipPath><linearGradient id="c" x1="805.977" x2="763.259" y1="187.482" y2="319.317" gradientTransform="matrix(.14405 0 0 .14499 46.323 21.25)" gradientUnits="userSpaceOnUse"><stop offset="0" stop-color="#CA517E"/><stop offset=".008" stop-color="#CA517F"/><stop offset=".016" stop-color="#CA5180"/><stop offset=".023" stop-color="#CA5081"/><stop offset=".031" stop-color="#CA5081"/><stop offset=".039" stop-color="#CA4F82"/><stop offset=".047" stop-color="#CA4F83"/><stop offset=".055" stop-color="#C94F84"/><stop offset=".063" stop-color="#C94E85"/><stop offset=".07" stop-color="#C94E86"/><stop offset=".078" stop-color="#C94D87"/><stop offset=".086" stop-color="#C94D88"/><stop offset=".094" stop-color="#C94D88"/><stop offset=".102" stop-color="#C94C89"/><stop offset=".109" stop-color="#C84C8A"/><stop offset=".117" stop-color="#C84B8B"/><stop offset=".125" stop-color="#C84B8C"/><stop offset=".133" stop-color="#C84B8D"/><stop offset=".141" stop-color="#C84A8E"/><stop offset=".148" stop-color="#C84A8F"/><stop offset=".156" stop-color="#C7498F"/><stop offset=".164" stop-color="#C74990"/><stop offset=".172" stop-color="#C74991"/><stop offset=".18" stop-color="#C74892"/><stop offset=".188" stop-color="#C74893"/><stop offset=".195" stop-color="#C74794"/><stop offset=".203" stop-color="#C74795"/><stop offset=".211" stop-color="#C64695"/><stop offset=".219" stop-color="#C64696"/><stop offset=".227" stop-color="#C64697"/><stop offset=".234" stop-color="#C64598"/><stop offset=".242" stop-color="#C64599"/><stop offset=".25" stop-color="#C6449A"/><stop offset=".258" stop-color="#C6449B"/><stop offset=".266" stop-color="#C5449C"/><stop offset=".273" stop-color="#C5439C"/><stop offset=".281" stop-color="#C5439D"/><stop offset=".289" stop-color="#C5429E"/><stop offset=".297" stop-color="#C5429F"/><stop offset=".305" stop-color="#C542A0"/><stop offset=".313" stop-color="#C441A1"/><stop offset=".32" stop-color="#C441A2"/><stop offset=".328" stop-color="#C440A3"/><stop offset=".336" stop-color="#C440A3"/><stop offset=".344" stop-color="#C43FA4"/><stop offset=".352" stop-color="#C43FA5"/><stop offset=".359" stop-color="#C43FA6"/><stop offset=".367" stop-color="#C33EA7"/><stop offset=".375" stop-color="#C33EA8"/><stop offset=".383" stop-color="#C33DA9"/><stop offset=".391" stop-color="#C33DAA"/><stop offset=".398" stop-color="#C33DAA"/><stop offset=".406" stop-color="#C33CAB"/><stop offset=".414" stop-color="#C23CAC"/><stop offset=".422" stop-color="#C23BAD"/><stop offset=".43" stop-color="#C23BAE"/><stop offset=".438" stop-color="#C23BAF"/><stop offset=".445" stop-color="#C23AB0"/><stop offset=".453" stop-color="#C23AB1"/><stop offset=".461" stop-color="#C239B1"/><stop offset=".469" stop-color="#C139B2"/><stop offset=".477" stop-color="#C139B3"/><stop offset=".484" stop-color="#C138B4"/><stop offset=".492" stop-color="#C138B5"/><stop offset=".494" stop-color="#C137B6"/><stop offset=".5" stop-color="#C137B6"/><stop offset=".506" stop-color="#C137B7"/><stop offset=".508" stop-color="#C137B7"/><stop offset=".516" stop-color="#C036B7"/><stop offset=".523" stop-color="#C036B8"/><stop offset=".531" stop-color="#C036B9"/><stop offset=".539" stop-color="#C035BA"/><stop offset=".547" stop-color="#C035BB"/><stop offset=".555" stop-color="#C034BC"/><stop offset=".563" stop-color="#C034BD"/><stop offset=".57" stop-color="#BF34BE"/><stop offset=".578" stop-color="#BF33BE"/><stop offset=".586" stop-color="#BF33BF"/><stop offset=".594" stop-color="#BF32C0"/><stop offset=".602" stop-color="#BF32C1"/><stop offset=".609" stop-color="#BF32C2"/><stop offset=".617" stop-color="#BF31C3"/><stop offset=".625" stop-color="#BE31C4"/><stop offset=".633" stop-color="#BE30C5"/><stop offset=".641" stop-color="#BE30C5"/><stop offset=".648" stop-color="#BE30C6"/><stop offset=".656" stop-color="#BE2FC7"/><stop offset=".664" stop-color="#BE2FC8"/><stop offset=".672" stop-color="#BD2EC9"/><stop offset=".68" stop-color="#BD2ECA"/><stop offset=".688" stop-color="#BD2DCB"/><stop offset=".695" stop-color="#BD2DCC"/><stop offset=".703" stop-color="#BD2DCC"/><stop offset=".711" stop-color="#BD2CCD"/><stop offset=".719" stop-color="#BD2CCE"/><stop offset=".727" stop-color="#BC2BCF"/><stop offset=".734" stop-color="#BC2BD0"/><stop offset=".742" stop-color="#BC2BD1"/><stop offset=".75" stop-color="#BC2AD2"/><stop offset=".758" stop-color="#BC2AD3"/><stop offset=".766" stop-color="#BC29D3"/><stop offset=".773" stop-color="#BB29D4"/><stop offset=".781" stop-color="#BB29D5"/><stop offset=".789" stop-color="#BB28D6"/><stop offset=".797" stop-color="#BB28D7"/><stop offset=".805" stop-color="#BB27D8"/><stop offset=".813" stop-color="#BB27D9"/><stop offset=".82" stop-color="#BB27D9"/><stop offset=".828" stop-color="#BA26DA"/><stop offset=".836" stop-color="#BA26DB"/><stop offset=".844" stop-color="#BA25DC"/><stop offset=".852" stop-color="#BA25DD"/><stop offset=".859" stop-color="#BA24DE"/><stop offset=".867" stop-color="#BA24DF"/><stop offset=".875" stop-color="#BA24E0"/><stop offset=".883" stop-color="#B923E0"/><stop offset=".891" stop-color="#B923E1"/><stop offset=".898" stop-color="#B922E2"/><stop offset=".906" stop-color="#B922E3"/><stop offset=".914" stop-color="#B922E4"/><stop offset=".922" stop-color="#B921E5"/><stop offset=".93" stop-color="#B821E6"/><stop offset=".938" stop-color="#B820E7"/><stop offset=".945" stop-color="#B820E7"/><stop offset=".953" stop-color="#B820E8"/><stop offset=".961" stop-color="#B81FE9"/><stop offset=".969" stop-color="#B81FEA"/><stop offset=".977" stop-color="#B81EEB"/><stop offset=".984" stop-color="#B71EEC"/><stop offset=".992" stop-color="#B71EED"/><stop offset="1" stop-color="#B71DEE"/></linearGradient></defs><g clip-path="url(#a)"><g clip-path="url(#b)"><path fill="url(#c)" d="M46.324 21.25v10.441h32.754V21.25Zm0 0"/></g></g><path fill="#fff" d="M15.428 12.923h3.484v11.72q-.002 1.61-.719 2.858a4.87 4.87 0 0 1-2.015 1.907c-.868.445-1.844.672-2.938.672q-2.688 0-4.187-1.36-1.5-1.372-1.5-3.875h3.5q0 1.253.515 1.844.529.596 1.672.594.996.002 1.594-.688.592-.687.594-1.953ZM29.208 28.564q-1.252 1.517-3.438 1.516c-1.355 0-2.386-.383-3.093-1.157q-1.066-1.171-1.094-3.422v-8.234h3.36v8.125q-.001 1.97 1.796 1.969 1.7 0 2.344-1.188v-8.906h3.375v12.578h-3.156ZM38.542 29.845h-3.375v-17.86h3.375ZM44.853 29.845h-3.375V17.267h3.375Zm-3.578-15.844c0-.5.164-.91.5-1.234.344-.32.805-.484 1.39-.484.571 0 1.024.164 1.36.484q.516.485.516 1.234 0 .786-.516 1.266c-.344.324-.805.484-1.375.484q-.843.001-1.36-.484-.515-.48-.515-1.266M54.899 29.845q-.235-.45-.329-1.125-1.236 1.36-3.187 1.36-1.844.002-3.063-1.063c-.804-.719-1.203-1.617-1.203-2.703q0-1.997 1.469-3.063 1.483-1.077 4.297-1.093h1.547v-.719q-.001-.874-.453-1.39-.457-.53-1.407-.532-.862.001-1.343.406-.47.411-.47 1.125h-3.374q0-1.09.672-2.015.685-.937 1.922-1.469 1.23-.53 2.765-.531 2.328 0 3.688 1.172t1.36 3.28v5.454q.011 1.8.5 2.703v.203Zm-2.782-2.344q.749 0 1.375-.328.621-.327.938-.89v-2.157h-1.266q-2.519.002-2.687 1.75v.188q-.001.627.437 1.031c.29.274.692.406 1.203.406M63.472 17.267l.094 1.453q1.358-1.687 3.625-1.687 1.997 0 2.969 1.172.983 1.171 1 3.515v8.125H67.8v-8.047q0-1.06-.468-1.547-.457-.482-1.547-.484-1.409 0-2.125 1.203v8.875H60.3V17.267Zm0 0"/></svg>