<svg xmlns="http://www.w3.org/2000/svg" width="38" height="28" fill="none"><path fill="#D8D8D8" d="M31.985 0H5.157A5.157 5.157 0 0 0 0 5.157V22.13a5.157 5.157 0 0 0 5.157 5.157h26.828a5.157 5.157 0 0 0 5.157-5.157V5.157A5.157 5.157 0 0 0 31.985 0m-19.06 18.411-7.221 6.16a1.212 1.212 0 1 1-1.574-1.845l7.22-6.16a1.212 1.212 0 1 1 1.575 1.845m5.646-2.342c-.966-.002-1.902-.323-2.634-.956l-.002-.002.002.002-11.08-9.617a1.212 1.212 0 1 1 1.59-1.832l11.082 9.619c.237.21.627.363 1.042.36.414.002.797-.146 1.047-.364l.006-.005 11.07-9.61a1.213 1.213 0 1 1 1.59 1.833l-11.082 9.619a4.03 4.03 0 0 1-2.631.953m14.577 8.367c-.434.51-1.2.57-1.71.135l-7.22-6.16a1.212 1.212 0 1 1 1.574-1.845l7.22 6.16c.51.435.57 1.2.136 1.71"/></svg>